{
	"asset": {
		"generator": "Khronos glTF Blender I/O v1.7.33",
		"version": "2.0"
	},
	"scene": 0,
	"scenes": [{ "nodes": [0,1] }],
	"nodes": [
		{ "mesh": 0, "name": "disc" },
		{ "mesh": 1, "name": "dvd" }
	],
	"materials": [{ "emissiveFactor": [1,1,1] }],
	"meshes": [
		{
			"name": "disc",
			"primitives": [
				{
					"indices" : 0, "material" : 0,
					"attributes": { "POSITION": 2 }
				}
			]
		},
		{
			"name": "dvd",
			"primitives": [
				{
					"indices": 1, "material": 0,
					"attributes": { "POSITION": 3 }
				}
			]
		}
	],
	"accessors" : [
		{ "bufferView": 1, "componentType": 5123, "type": "SCALAR", "count": 1560 },
		{ "bufferView": 3, "componentType": 5123, "type": "SCALAR", "count": 2556 },
		{
			"bufferView": 0, "componentType": 5126, "type": "VEC3", "count": 1560,
			"max": [1,0,1], "min": [-1,-0.2,-1]
		},
		{
			"bufferView": 2, "componentType": 5126, "type": "VEC3", "count": 2556,
			"max" : [1,0.64,0.125], "min" : [-1,0,-0.125]
		}
	],
	"bufferViews" : [
		{ "buffer" : 0, "byteLength" : 18720, "byteOffset" : 0 },
		{ "buffer" : 0, "byteLength" : 3120, "byteOffset" : 18720 },
		{ "buffer" : 0, "byteLength" : 30672, "byteOffset" : 21840 },
		{ "buffer" : 0, "byteLength" : 5112, "byteOffset" : 52512 }
	],
	"buffers": [
		{
			"byteLength": 57624,
			"uri": "data:application/octet-stream;base64,"
		}
	]
}