{
	"asset": {
		"generator": "Khronos glTF Blender I/O v1.7.33",
		"version": "2.0"
	},
	"scene": 0,
	"scenes": [{ "nodes": [0,1] }],
	"nodes": [
		{ "mesh": 1, "name": "dvd" },
		{ "mesh": 0, "name": "disc", "rotation": [0.05, 0, 0, 1], "translation": [0, -0.1, 0] }
	],
	"materials": [{ "emissiveFactor": [1,1,1] }],
	"meshes": [
		{
			"name": "disc",
			"primitives": [
				{
					"indices": 0, "material": 0,
					"attributes": { "POSITION": 2 }
				}
			]
		},
		{
			"name": "dvd",
			"primitives": [
				{
					"indices": 1, "material": 0,
					"attributes": { "POSITION": 3 }
				}
			]
		}
	],
	"accessors": [
		{ "bufferView": 1, "componentType": 5123, "type": "SCALAR", "count": 1440 },
		{ "bufferView": 3, "componentType": 5123, "type": "SCALAR", "count": 2556 },
		{
			"bufferView": 0, "componentType": 5126, "type": "VEC3", "count": 240,
			"max": [1, 0.01, 1], "min": [-1, -0.01, -1]
		},
		{
			"bufferView": 2, "componentType": 5126, "type": "VEC3", "count": 2556,
			"max": [1, 0.64, 0.125], "min": [-1, 0, -0.125]
		}
	],
	"bufferViews": [
		{ "buffer": 0, "byteLength": 2880, "byteOffset": 0 },
		{ "buffer": 0, "byteLength": 2880, "byteOffset": 2880 },
		{ "buffer": 1, "byteLength": 30672, "byteOffset": 0 },
		{ "buffer": 1, "byteLength": 5112, "byteOffset": 30672 }
	],
	"buffers": [
		{
			"byteLength": 5760,
			"uri": "data:application/octet-stream;base64,"
		},
		{
			"byteLength": 35784,
			"uri": "data:application/octet-stream;base64,"
		}
	]
}